<?xml version="1.0" encoding="UTF-8" standalone="no"?>
<svg width="180px" height="180px" viewBox="0 0 180 180" version="1.1" xmlns="http://www.w3.org/2000/svg" xmlns:xlink="http://www.w3.org/1999/xlink">
    <!-- Generator: Sketch 3.8.3 (29802) - http://www.bohemiancoding.com/sketch -->
    <title>Artboard</title>
    <desc>Created with Sketch.</desc>
    <defs></defs>
    <g id="Page-1" stroke="none" stroke-width="1" fill="none" fill-rule="evenodd">
        <g id="Artboard">
            <path d="M50,137.459299 C50,120.035739 61.7040352,105.28391 77.8472642,100.304166 C71.1358058,96.0231956 66.6843854,88.5091257 66.6843854,79.954717 C66.6843854,78.4015261 66.8311321,76.8826312 67.1115088,75.4111573 L57.4152824,71.8523804 L57.4152824,86.9109164 L57.4152824,91.0846361 L55.5614618,87.3746631 L53.7076412,91.0846361 L53.7076412,86.9109164 L53.7076412,70.4915759 L50,69.1307714 L80.0304754,41 L121.507403,56.2231528 L112.062468,68.6227192 C113.86311,72.0010373 114.883721,75.8586139 114.883721,79.954717 C114.883721,88.7788034 110.147215,96.4959237 103.079437,100.699331 C118.592969,106.029447 129.714286,120.475018 129.714286,137.459299 C129.714286,138.081139 129.699378,138.699575 129.669892,139.314286 L50.0443937,139.314286 C50.014908,138.699575 50,138.081139 50,137.459299 Z" id="Path" fill="#0965DA"></path>
            <path d="M82.6571429,63.3142857 C84.1246423,63.3142857 85.3142857,62.1246423 85.3142857,60.6571429 C85.3142857,59.1896434 84.1246423,58 82.6571429,58 C81.1896434,58 80,59.1896434 80,60.6571429 C80,62.1246423 81.1896434,63.3142857 82.6571429,63.3142857 Z" id="Oval-11" fill="#FFFFFF"></path>
        </g>
    </g>
</svg>