<?xml version="1.0" encoding="UTF-8" standalone="no"?>
<svg width="177px" height="177px" viewBox="0 0 177 177" version="1.1" xmlns="http://www.w3.org/2000/svg" xmlns:xlink="http://www.w3.org/1999/xlink">
    <!-- Generator: Sketch 3.8.3 (29802) - http://www.bohemiancoding.com/sketch -->
    <title>Artboard</title>
    <desc>Created with Sketch.</desc>
    <defs>
        <path d="M88.5,177 C137.3772,177 177,137.3772 177,88.5 C177,39.6227996 137.3772,0 88.5,0 C39.6227996,0 0,39.6227996 0,88.5 C0,137.3772 39.6227996,177 88.5,177 L88.5,177 Z" id="path-1"></path>
        <mask id="mask-2" maskContentUnits="userSpaceOnUse" maskUnits="objectBoundingBox" x="0" y="0" width="177" height="177" fill="white">
            <use xlink:href="#path-1"></use>
        </mask>
    </defs>
    <g id="Page-1" stroke="none" stroke-width="1" fill="none" fill-rule="evenodd">
        <g id="Artboard">
            <use id="Path" stroke="#0965DA" mask="url(#mask-2)" stroke-width="10" stroke-linecap="round" stroke-linejoin="round" fill="#FFFFFF" xlink:href="#path-1"></use>
            <path d="M82.0051681,52.5606078 C82.0051681,48.8123276 85.0431595,45.7758621 88.7906767,45.7758621 C92.5366681,45.7758621 95.5769483,48.8123276 95.5769483,52.5606078 C95.5769483,56.3073621 92.537431,59.3461164 88.7906767,59.3461164 C85.0439224,59.3453534 82.0051681,56.3073621 82.0051681,52.5606078 L82.0051681,52.5606078 Z" id="Path" fill="#0965DA"></path>
            <path d="M108.364561,114.789454 C109.198933,114.205924 109.675362,113.237345 108.927361,111.6298 C108.021287,113.072859 107.981565,114.082742 108.364561,114.789454 L108.364561,114.789454 Z" id="Path" fill="#0965DA"></path>
            <path d="M127.095896,116.276793 L138.090589,116.276793 C138.93326,116.276793 139.616379,116.95407 139.616379,117.802655 C139.616379,118.645366 138.93144,119.328517 138.090589,119.328517 L38.14648,119.328517 C37.3038092,119.328517 36.6206897,118.651241 36.6206897,117.802655 C36.6206897,116.959945 37.3056293,116.276793 38.14648,116.276793 L42.8887377,116.276793 C43.2150257,115.198099 43.1392447,113.610803 41.6707987,111.474881 C39.1575319,107.819221 47.3375229,113.867846 50.5090399,116.276793 L55.0131754,116.276793 C56.3166713,115.320626 56.664529,113.373769 52.5561726,109.410414 C55.8718042,110.041963 59.3350186,112.592089 61.7373644,114.710107 C65.3023374,112.035252 72.0273521,107.195966 69.7171324,110.556285 C67.7539598,113.411809 68.2799176,115.286766 68.9280068,116.276793 L83.750895,116.276793 C83.4108169,115.627434 83.2412376,114.833659 83.32275,113.902552 L84.6441466,98.7896509 L73.5930905,90.9543491 L66.9105776,100.922806 C66.0866121,102.10306 64.9757845,102.849207 63.5391853,102.849207 L45.6804957,101.945897 C40.1851034,101.657509 40.6169224,93.4125129 46.1130776,93.7016638 L61.28625,94.4974009 L66.9677974,86.0189483 C66.5443707,85.3620647 66.2987069,84.6121034 66.2987069,83.8033966 C66.2987069,83.4059095 66.3589784,83.0213922 66.4688405,82.6582371 L70.7717716,67.337056 L65.3595388,67.315694 L61.0360086,75.8239009 C58.5442759,80.7303103 51.1842802,76.9919483 53.6775388,72.0847759 L59.0912974,61.4159483 C59.8694871,59.8916121 61.0001509,59.1057931 62.5527155,59.0531509 C62.5962026,59.0523879 81.4543319,59.1279181 81.4543319,59.1279181 C83.2464569,59.1279181 84.4816422,59.8458362 85.4940517,60.9070733 L96.5733362,72.227444 L105.633142,69.2718491 C110.86456,67.5651724 113.424957,75.413444 108.192776,77.1201207 C108.192776,77.1201207 96.5695216,80.889 96.4581336,80.922569 C96.1071853,81.0248017 95.7371638,81.0820216 95.3526466,81.0820216 C94.374569,81.0820216 93.4636293,80.7219181 92.7937759,80.1283578 C92.6495819,80.004 85.6893621,72.9102672 85.6893621,72.9102672 L78.1905129,84.0948362 C82.713931,87.3029612 90.9093362,93.1256509 91.4151595,93.4796509 C92.4626638,94.2013836 93.1325172,95.3816379 93.1325172,96.7160043 C93.1325172,96.8640129 91.5463836,114.622759 91.5463836,114.622759 C91.4908607,115.256161 91.3320238,115.806763 91.0952227,116.276793 L95.3631532,116.276793 C96.0523089,115.614298 97.5654254,113.570044 95.0759711,109.949019 C92.8712995,106.742224 98.8951277,111.002912 102.54849,113.723654 C104.042178,112.428921 105.906876,111.006724 107.876955,109.973767 C107.389508,109.348461 106.759528,108.654564 105.961345,107.884552 C107.15832,108.112547 108.37453,108.590587 109.553117,109.208072 C110.193138,108.961388 110.836299,108.76895 111.474,108.647483 C111.091777,109.016216 110.748125,109.367495 110.440225,109.702146 C112.509198,110.921115 114.411507,112.497131 115.821086,113.795931 C116.067185,113.61539 116.319078,113.43175 116.574239,113.247157 C115.707024,111.92619 115.202586,110.345745 115.202586,108.647483 C115.202586,104.012576 118.959921,100.255241 123.594828,100.255241 C128.229735,100.255241 131.987069,104.012576 131.987069,108.647483 C131.987069,112.032763 129.982657,114.949887 127.095896,116.276793 L127.095896,116.276793 Z" id="Path" fill="#0965DA"></path>
        </g>
    </g>
</svg>