<svg xmlns="http://www.w3.org/2000/svg" width="298" height="337.33" viewBox="0 0 298 337.33"><title>Slice 1</title><path fill="#1572B6" d="M27.142 303.62L.071 0h297.451l-27.097 303.571-121.811 33.77L27.142 303.62z"/><path fill="#33A9DC" d="M148.798 311.529l98.427-27.288 23.157-259.415H148.798v286.703z"/><path fill="#FFF" d="M148.797 134.826h49.275l3.402-38.132h-52.677V59.455h93.375l-.893 9.991-9.152 102.615h-83.33v-37.235z"/><path fill="#EBEBEB" d="M149.02 231.534l-.163.046-41.472-11.199-2.652-29.696H67.354l5.216 58.467 76.278 21.176.172-.048v-38.746z"/><path fill="#FFF" d="M194.907 170.486l-4.484 49.868-41.532 11.211v38.742l76.339-21.158.56-6.291 6.478-72.372h-37.361z"/><path fill="#EBEBEB" d="M148.926 59.455v37.24H58.979l-.747-8.37-1.697-18.879-.89-9.991h93.281zm-.129 75.375v37.24H107.85l-.746-8.37-1.698-18.878-.89-9.991 44.281-.001z"/></svg>