<svg xmlns="http://www.w3.org/2000/svg" width="237.291" height="267.78" viewBox="0 0 237.291 267.78"><path fill-rule="evenodd" clip-rule="evenodd" fill="#D5B933" d="M118.972.081C156.796.084 194.62.143 232.444 0c4.141-.016 5.221.732 4.741 5.219-2.461 22.999-4.447 46.05-6.625 69.079-2.194 23.195-4.443 46.385-6.623 69.582-2.149 22.865-4.249 45.736-6.359 68.605-.78 8.452-1.581 16.902-2.262 25.363-.23 2.856-1.463 4.315-4.328 5.088a17180.549 17180.549 0 0 0-89.998 24.542c-1.91.525-3.535.304-5.329-.201-29.453-8.29-58.89-16.636-88.406-24.694-3.768-1.028-5.072-2.822-5.388-6.38-1.695-19.064-3.491-38.119-5.287-57.174-2.202-23.361-4.451-46.718-6.655-70.078a47816.428 47816.428 0 0 1-6.33-67.605C2.486 29.415 1.822 17.424.159 5.571-.586.263 1.312-.001 5.499.011c37.823.114 75.648.067 113.473.07z"/><path fill-rule="evenodd" clip-rule="evenodd" fill="#F9E02E" d="M118.545 48.995c.011-8.331.176-16.666-.038-24.99-.093-3.605.844-4.953 4.713-4.934 28.991.147 57.983.137 86.974.01 3.639-.017 4.729 1.311 4.397 4.674a5048.866 5048.866 0 0 0-3.715 39.05c-.837 9.238-1.482 18.494-2.312 27.734-1.214 13.517-2.55 27.022-3.766 40.54-.802 8.91-1.436 17.835-2.231 26.746-1.236 13.849-2.696 27.68-3.768 41.54-.586 7.597-1.086 15.19-1.923 22.77-.363 3.289-1.863 4.505-4.76 5.316-20.772 5.818-41.497 11.81-62.278 17.598-3.47.966-7.857 4.009-10.283 2.118-2.725-2.123-.818-7.162-.929-10.919-.187-6.326-.068-12.662-.078-18.993.152-.966.716-1.628 1.537-2.103 15.797-5.269 31.997-9.159 47.97-13.836 9.22-2.699 9.074-2.655 9.963-12.142 2.206-23.521 4.251-47.056 6.634-70.56.722-7.119.212-7.823-6.915-7.837-16.982-.03-33.966.008-50.948-.025-2.644-.005-5.347.306-7.874-.896a3.423 3.423 0 0 1-1.25-1.375c-1.021-9.218-2.004-18.436.6-27.576 2.18-1.693 4.756-1.099 7.198-1.211 8.596-.396 17.238.795 25.794-.761 9.395-.979 18.824-.312 28.239-.457 7.896-.121 7.925-.039 8.961-8.039.552-4.261.777-8.557 1.286-12.826.23-1.939.416-3.985-.998-5.681-1.808-1.673-4.044-1.335-6.187-1.337-19.163-.015-38.326.021-57.488-.039-2.253-.005-4.743.584-6.525-1.559z"/><path fill-rule="evenodd" clip-rule="evenodd" fill="#EAEAEA" d="M118.545 48.995c22.63.072 45.261.124 67.892.256 1.723.01 3.675-.784 5.171.843-2.34 2.133-5.259 1.769-8.047 1.775-18.428.04-36.854.002-55.282.027-7.888.011-7.917.063-7.943 8.136-.014 4.15-.061 8.302.017 12.451.103 5.479.432 5.81 6.074 5.879 6.308.078 12.618-.054 18.925.062 2.278.042 4.722-.229 6.44 1.862-8.58 1.209-17.206.208-25.805.535-2.481.095-4.964.18-7.445.27-2.021 1.931-4.588 1.711-7.062 1.728-8.808.059-17.618-.066-26.425.059-5.297.075-5.723.635-5.151 5.846.506 4.623.586 9.274 1.147 13.903.435 3.589 2.037 4.831 5.472 4.812 8.309-.047 16.62-.053 24.93.008 2.474.018 5.029-.228 7.156 1.502l-.042.361c1.052.949 1.531 2.207 1.54 3.548.057 8.418.82 16.852-.462 25.241a4.028 4.028 0 0 1-1.021 1.469c-2.909 1.692-6.131 1.099-9.244 1.144-6.801.099-13.604.022-20.406.039-3.044.008-4.384.951-4.175 4.427.509 8.444 1.32 16.85 2.107 25.269.422 4.519 2.562 6.356 6.588 7.289 8.403 1.945 16.72 4.252 25.152 6.107.892.218 1.66.622 2.189 1.401-1.377 10.32.183 20.742-1.071 31.066l-1.215.944c-19.039-5.044-38.068-10.127-57.129-15.085-2.589-.674-3.68-1.63-3.947-4.585-1.836-20.31-2.952-40.671-5.595-60.93-2.509-19.235-3.562-38.658-5.324-57.992-.752-8.26-1.451-16.536-2.621-24.741-.543-3.812.289-4.882 4.197-4.862 23.471.115 46.943-.016 70.415-.064z"/><path fill-rule="evenodd" clip-rule="evenodd" fill="#FEFEFE" d="M118.57 138.959l-.005-29.648c21.625-.058 43.25-.063 64.874-.229 3.159-.023 3.488 1.347 3.241 3.94-1.59 16.709-3.066 33.43-4.621 50.143-1.047 11.252-2.205 22.493-3.203 33.748-.183 2.059-.749 3.346-2.908 3.936-18.739 5.113-37.459 10.298-56.184 15.462-1.398-1.064-1.178-2.61-1.181-4.071-.012-7.401.045-14.803-.04-22.203-.021-1.943.258-3.571 2.028-4.644 1.296-2.353 3.76-2.564 5.96-3.138 6.109-1.592 12.218-3.199 18.371-4.606 3.374-.771 5.124-2.577 5.454-6.072.81-8.594 1.355-17.213 2.458-25.779.476-3.696-1.307-5.065-4.869-5.045-7.643.046-15.286.08-22.928-.028-2.258-.035-4.731.39-6.447-1.766zm33.221-58.672c-9.644-.064-19.288-.234-28.93-.131-3.205.034-4.443-.931-4.342-4.252.202-6.647.315-13.317-.03-19.952-.234-4.49 1.032-5.98 5.76-5.931 22.45.238 44.905.086 67.358.073.28 9.316-1.724 18.457-2.131 27.719-.12 2.747-1.999 2.584-3.857 2.578l-33.828-.104z"/><path fill-rule="evenodd" clip-rule="evenodd" fill="#D5B933" d="M118.608 108.949c-11.972.061-23.943.104-35.915.197-1.895.015-3.011-.287-3.174-2.641-.49-7.111-1.206-14.208-1.955-21.298-.336-3.178.672-4.372 4.06-4.312 12.303.22 24.611.153 36.917.195l.067 27.859z"/><path fill-rule="evenodd" clip-rule="evenodd" fill="#F9E02E" d="M118.57 138.959c10.628.056 21.257.19 31.884.117 2.98-.021 4.615.378 4.217 4.018-1.172 10.721-2.148 21.465-2.997 32.217-.205 2.592-1.816 2.725-3.604 3.169-9.172 2.278-18.332 4.603-27.496 6.911l-2.031-.226c-1.72-1.883-1.719-4.237-1.729-6.558-.048-10.93-.06-21.859.01-32.789.015-2.296-.122-4.695 1.786-6.498l-.04-.361z"/><path fill-rule="evenodd" clip-rule="evenodd" fill="#D5B933" d="M118.608 139.32l-.065 45.845c-10.342-1.54-20.229-5.007-30.419-7.19-1.884-.403-2.444-1.786-2.592-3.705a1534.412 1534.412 0 0 0-2.7-31.258c-.264-2.716.23-3.979 3.308-3.924 10.82.19 21.645.172 32.468.232z"/></svg>