<svg xmlns="http://www.w3.org/2000/svg" width="261.781" height="580.298" viewBox="270.49 13.702 261.781 580.298"><path fill="#E94B4B" d="M399.954 471.613c-33.997 0-60.27-5.109-72.901-8.151-8.64-2.082-15.578-4.236-20.848-6.448l16.85 28.786 6.592 89.943c0 10.082 32.03 18.257 71.543 18.257 39.514 0 71.545-8.175 71.545-18.257l5.219-90.923 15.941-27.892c-5.293 2.244-12.292 4.426-21.038 6.532-12.633 3.045-38.905 8.153-72.903 8.153z"/><path fill="#E94B4B" d="M494.442 178.936c-24.954 3.486-58.07 5.405-93.253 5.405-35.182 0-68.298-1.918-93.252-5.405-12.361-1.726-22.14-3.763-29.065-6.051-1.651-.545-4.452-1.478-7.146-2.964l15.46 142.287c.721-2.45 1.521-4.897 2.407-7.336a138.978 138.978 0 0 1 6.296-14.655 129.641 129.641 0 0 1 7.786-13.531c2.804-4.247 5.791-8.158 8.956-11.732 3.165-3.573 6.413-6.647 9.748-9.221 3.332-2.573 6.698-4.584 10.093-6.035 3.397-1.448 6.764-2.173 10.097-2.173 3.839 0 7.553 1.049 11.139 3.147 3.586 2.1 6.938 5.499 10.063 10.197.717 1.049 1.17 2.111 1.358 3.185.191 1.076.285 2.088.285 3.037 0 2.249-.539 4.024-1.613 5.323-1.076 1.299-2.353 1.949-3.829 1.949-1.35 0-2.604-.713-3.766-2.136-1.161-1.422-2.458-3.459-3.895-6.11-1.349-2.399-2.837-4.135-4.461-5.21-1.625-1.074-3.386-1.611-5.284-1.611-2.954 0-6.106 1.224-9.462 3.674-3.354 2.449-6.678 5.685-9.968 9.708-3.291 4.022-6.445 8.621-9.462 13.792a143.67 143.67 0 0 0-8.005 15.893c-2.322 5.425-4.167 10.771-5.537 16.044-1.372 5.271-2.058 10.007-2.058 14.204 0 1.4.094 2.839.283 4.31.191 1.478.549 2.812 1.076 4.013.528 1.199 1.244 2.186 2.153 2.959.907.777 2.058 1.162 3.449 1.162 1.562 0 3.333-.523 5.314-1.574 1.983-1.047 4.042-2.424 6.173-4.121 2.131-1.7 4.271-3.625 6.425-5.773a103.198 103.198 0 0 0 6.012-6.521 95.978 95.978 0 0 0 4.936-6.332c1.435-2.024 2.512-3.786 3.229-5.286l5.886-17.617c.716-1.898 1.655-3.248 2.816-4.049 1.16-.798 2.353-1.198 3.577-1.198.588 0 1.178.101 1.771.299a4.4 4.4 0 0 1 1.583.937c.466.424.832.975 1.107 1.65.272.674.408 1.462.408 2.359 0 2.399-.21 4.646-.632 6.747a53.637 53.637 0 0 1-1.611 6.148 109.352 109.352 0 0 1-2.185 6.033 149.466 149.466 0 0 0-2.343 6.335c-.167.25-.472 1.038-.916 2.357a378.737 378.737 0 0 0-1.614 4.987 447.6 447.6 0 0 0-2.058 6.711 1540.04 1540.04 0 0 1-2.277 7.568c-.784 2.574-1.529 5.1-2.248 7.572a1790.435 1790.435 0 0 0-3.353 11.731 86.595 86.595 0 0 1-.695 2.401c-.214.797-.55 1.687-1.014 2.66a17.842 17.842 0 0 1-1.647 2.774c-.632.873-1.328 1.598-2.088 2.172-.759.574-1.54.861-2.341.861-1.35 0-2.333-.449-2.941-1.348-.612-.9-.918-2.55-.918-4.946v-1.052c0-.348.021-.725.062-1.123.041-.8.358-2.299.95-4.5a303.626 303.626 0 0 1 2.122-7.456 438.17 438.17 0 0 1 2.656-8.623c.95-2.975 1.805-5.632 2.564-7.983a124.225 124.225 0 0 1-7.279 7.459 78.107 78.107 0 0 1-8.038 6.672c-2.743 1.977-5.507 3.586-8.291 4.837-2.784 1.247-5.464 1.874-8.038 1.874-2.954 0-5.497-.65-7.628-1.95-.385-.233-.746-.5-1.107-.763l8.603 90.198c2.237 5.613 44.399 19.406 99.991 19.406 55.618 0 97.797-13.806 99.996-19.415l12.357-107.238c-1.024.938-2.02 1.854-2.973 2.744-3.545 3.297-6.89 6.133-10.033 8.506-3.143 2.375-6.214 4.213-9.206 5.512-2.997 1.299-6.204 1.949-9.625 1.949-3.204 0-5.684-.701-7.436-2.103-1.75-1.397-2.627-3.321-2.627-5.771v-.562c0-.172.021-.389.064-.639.167-1.497.823-3.227 1.963-5.174 1.139-1.948 2.509-3.974 4.111-6.069a162.778 162.778 0 0 1 5.127-6.372 303.847 303.847 0 0 0 5.033-6.111c1.537-1.919 2.814-3.683 3.828-5.283 1.014-1.6 1.52-2.897 1.52-3.897 0-.601-.212-1.073-.632-1.427-.424-.346-1.122-.523-2.088-.523-1.688 0-3.431.438-5.225 1.312-1.792.873-3.566 2.049-5.316 3.522-1.749 1.474-3.461 3.164-5.127 5.06a73.315 73.315 0 0 0-4.683 5.922 79.692 79.692 0 0 0-3.984 6.186c-1.202 2.074-2.229 3.986-3.071 5.734-.254.549-.611 1.326-1.076 2.322-.467 1-.973 2.127-1.52 3.375a218.63 218.63 0 0 1-1.741 3.858 166.012 166.012 0 0 0-1.676 3.75l-1.358 3.147a78.53 78.53 0 0 1-.854 1.912c-.213.449-.561 1.297-1.044 2.547a573.452 573.452 0 0 0-1.677 4.388c-.635 1.673-1.296 3.437-1.992 5.285-.695 1.848-1.352 3.598-1.964 5.248-.61 1.647-1.15 3.097-1.611 4.348-.467 1.247-.764 2.097-.891 2.547a27.181 27.181 0 0 1-1.483 3.675 15.16 15.16 0 0 1-1.961 3.035 9.073 9.073 0 0 1-2.534 2.1c-.951.527-2.016.787-3.195.787-1.52 0-2.772-.364-3.769-1.09-.988-.724-1.483-2.11-1.483-4.158 0-1 .127-2.023.379-3.072.255-1.049.571-2.09.95-3.111.38-1.027.771-2.023 1.169-2.996.402-.978.773-1.914 1.105-2.812 2.281-4.998 4.602-10.01 6.965-15.032a694.678 694.678 0 0 0 6.804-14.916c.453-1.026.867-2.032 1.31-3.053-.133.13-.263.266-.392.393-2.745 2.648-5.475 4.986-8.195 7.009-2.725 2.023-5.425 3.635-8.103 4.838-2.678 1.195-5.285 1.795-7.816 1.795-1.729 0-3.174-.272-4.333-.823-1.161-.55-2.091-1.302-2.786-2.247-.697-.951-1.193-2.074-1.487-3.375-.101-.443-.162-.909-.227-1.369a61.912 61.912 0 0 1-2.241 1.67c-2.614 1.848-5.188 3.335-7.723 4.459-2.529 1.123-4.809 1.686-6.832 1.686-2.027 0-3.673-.674-4.938-2.022-1.267-1.348-1.899-3.647-1.899-6.896 0-2.301.341-4.975 1.014-8.022-1.099 1.951-2.469 3.925-4.112 5.923a35.959 35.959 0 0 1-5.633 5.475c-2.11 1.648-4.474 2.986-7.089 4.01-2.617 1.023-5.466 1.538-8.544 1.538-1.395 0-2.73-.173-4.021-.525a8.382 8.382 0 0 1-3.386-1.799c-.97-.847-1.75-1.983-2.341-3.409-.593-1.427-.885-3.214-.885-5.361 0-.049.083-.812.252-2.289.167-1.475.706-3.797 1.612-6.972.909-3.171 2.311-7.282 4.208-12.331 1.902-5.05 4.579-11.17 8.041-18.365.886-1.9 1.909-3.261 3.066-4.084 1.162-.826 2.417-1.238 3.765-1.238a6.95 6.95 0 0 1 1.837.262 5.882 5.882 0 0 1 1.774.826 4.43 4.43 0 0 1 1.329 1.422c.337.575.507 1.236.507 1.986 0 .5-.065.976-.191 1.422-.212.854-.664 1.963-1.356 3.337a468.14 468.14 0 0 1-2.439 4.726 383.564 383.564 0 0 0-2.94 5.735 81.526 81.526 0 0 0-2.879 6.37 63.366 63.366 0 0 0-2.279 6.709c-.634 2.275-.993 4.486-1.076 6.634 0 .901.21 1.726.633 2.476.419.75 1.117 1.123 2.088 1.123 2.742 0 5.357-.9 7.85-2.696 2.488-1.8 4.785-4.037 6.896-6.71a64.617 64.617 0 0 0 5.728-8.623c1.709-3.074 3.133-5.883 4.271-8.434a42.117 42.117 0 0 0 2.121-5.473 54.115 54.115 0 0 1 1.995-5.396c.716-1.651 1.537-3.025 2.467-4.125.93-1.098 2.09-1.647 3.482-1.647 1.521 0 2.72.575 3.607 1.725.886 1.15 1.326 2.523 1.326 4.12 0 .9-.283 2.139-.853 3.713a101.471 101.471 0 0 1-2.153 5.397 607.557 607.557 0 0 1-2.816 6.483 113.426 113.426 0 0 0-2.812 7.01 69.506 69.506 0 0 0-2.155 6.972c-.569 2.274-.852 4.386-.852 6.333 0 1.801.925 2.701 2.783 2.701 1.309 0 2.933-.45 4.873-1.352 1.941-.896 3.978-2.162 6.106-3.785a45.71 45.71 0 0 0 1.602-1.273c.594-2.453 1.288-4.723 2.102-6.783 1.477-3.9 2.974-7.771 4.495-11.619 1.519-3.849 2.908-7.373 4.176-10.572l19.177-48.353c.76-1.948 1.781-3.324 3.066-4.124 1.288-.798 2.586-1.199 3.896-1.199 1.308 0 2.498.425 3.574 1.274 1.077.851 1.613 2.225 1.613 4.123 0 .9-.178 1.85-.536 2.848a34.577 34.577 0 0 1-1.362 3.225 571.61 571.61 0 0 0-3.766 8.62 1207.85 1207.85 0 0 0-4.683 11.096 1288.56 1288.56 0 0 0-5.127 12.482c-1.75 4.325-3.46 8.535-5.126 12.63a1573.136 1573.136 0 0 0-4.684 11.656 2046.18 2046.18 0 0 0-3.765 9.559c-.468 1.148-.918 2.486-1.358 4.012-.444 1.523-.666 2.887-.666 4.086 0 .747.126 1.35.38 1.799.253.447.738.676 1.458.676.886 0 1.988-.312 3.318-.938 1.332-.623 2.763-1.45 4.305-2.476a68.881 68.881 0 0 0 4.811-3.524 154.736 154.736 0 0 0 4.968-4.12 142.203 142.203 0 0 0 4.716-4.273 174.616 174.616 0 0 0 4.021-3.936c.276-.29.608-.49.975-.646a136.821 136.821 0 0 0 1.934-6.25c.341-.899.804-2.174 1.396-3.823a52.893 52.893 0 0 1 2.022-4.875c.761-1.599 1.615-2.984 2.562-4.159.951-1.174 1.974-1.762 3.071-1.762 1.688 0 2.913.389 3.671 1.161.76.777 1.139 1.914 1.139 3.412 0 .301-.039.775-.126 1.424-.086.649-.188 1.34-.313 2.062a50.145 50.145 0 0 1-.411 2.062c-.151.65-.285 1.123-.411 1.424a85.068 85.068 0 0 1 5.062-5.061 52.647 52.647 0 0 1 5.632-4.537 32.599 32.599 0 0 1 5.95-3.3c2.026-.847 4.053-1.272 6.076-1.272 1.39 0 2.773.2 4.146.599 1.369.399 2.598.988 3.672 1.761a9.197 9.197 0 0 1 2.625 2.923c.673 1.174 1.014 2.537 1.014 4.087 0 2.05-.516 4.234-1.55 6.56-1.035 2.323-2.33 4.658-3.894 7.007a87.076 87.076 0 0 1-5.062 6.859 261.253 261.253 0 0 1-5.095 6.07 529.43 529.43 0 0 0-3.988 4.647c-1.074 1.277-1.637 2.14-1.676 2.589 0 .602.188 1.086.569 1.463.379.373 1.013.562 1.897.562.72 0 1.772-.401 3.166-1.2 1.392-.801 3.345-2.188 5.854-4.16 2.511-1.975 5.698-4.623 9.56-7.947a900.19 900.19 0 0 0 9.237-8.08l16.741-155.021c-2.697 1.488-5.499 2.42-7.154 2.967-6.945 2.286-16.723 4.322-29.085 6.049z"/><path fill="#E94B4B" d="M401.189 141.802c-72.183 0-130.699 8.174-130.699 18.257s58.518 18.257 130.699 18.257c72.185 0 130.7-8.173 130.7-18.257s-58.515-18.257-130.7-18.257zm36.648 27.948c-8.601 0-15.573-1.899-15.573-4.241 0-2.342 6.974-4.241 15.573-4.241 8.601 0 15.573 1.899 15.573 4.241 0 2.343-6.972 4.241-15.573 4.241z"/><ellipse fill="#E94B4B" cx="437.839" cy="164.011" rx="12.534" ry="2.744"/><path fill="#E94B4B" d="M531.919 28.814c-1.397 1.582-6.305-.501-10.945-4.638-4.64-4.137-7.808-8.342-6.32-9.844 1.556-1.575 6.567-.175 11.209 3.963 4.639 4.136 7.434 8.961 6.056 10.519z"/><path fill="#E94B4B" d="M531.919 28.814l-17.267-14.482-69.506 73.139-19.825 76.54h25.051l16.373-66.386z"/></svg>