<svg xmlns="http://www.w3.org/2000/svg" width="298" height="337.354" viewBox="0 0 298 337.354"><title>Slice 1</title><path fill="#E44F26" d="M27.383 302.632L.313-.988h297.451l-27.099 303.571-121.809 33.771-121.473-33.722z"/><path fill="#F1662A" d="M149.038 310.541l98.427-27.288 23.158-259.416H149.038v286.704z"/><path fill="#EBEBEB" d="M149.038 136.447H99.763l-3.404-38.132h52.679v-37.24H55.663l.892 9.991 9.152 102.615h83.331v-37.234zm0 96.708l-.163.046-41.472-11.199-2.652-29.697h-37.38l5.217 58.467 76.278 21.177.172-.048v-38.746z"/><path fill="#FFF" d="M148.909 136.447v37.235h45.854l-4.322 48.293-41.532 11.211v38.742l76.34-21.158.56-6.289 8.75-98.035.908-9.999h-86.558zm0-75.372v37.24h89.946l.748-8.37 1.694-18.878.892-9.991h-93.28z"/></svg>