<?xml version="1.0" encoding="utf-8"?>
<!-- Generator: Adobe Illustrator 16.0.0, SVG Export Plug-In . SVG Version: 6.00 Build 0)  -->
<!DOCTYPE svg PUBLIC "-//W3C//DTD SVG 1.1//EN" "http://www.w3.org/Graphics/SVG/1.1/DTD/svg11.dtd">
<svg version="1.1" id="Layer_1" xmlns="http://www.w3.org/2000/svg" xmlns:xlink="http://www.w3.org/1999/xlink" x="0px" y="0px"
	 width="140px" height="140px" viewBox="0 0 140 140" enable-background="new 0 0 140 140" xml:space="preserve">
<path fill="#05060B" d="M69.72,71.249c0.66-0.462,1.037-1.228,0.445-2.499C69.448,69.892,69.417,70.69,69.72,71.249z"/>
<path d="M70,140c38.659,0,70-31.34,70-70S108.659,0,70,0C31.34,0,0,31.34,0,70S31.34,140,70,140z M92.43,60.574l15.103,15.102
	c0.182,0.125,0.354,0.268,0.516,0.43c1.209,1.209,1.391,3.057,0.551,4.461c-0.156,0.271-0.351,0.527-0.583,0.76
	c-0.08,0.08-0.163,0.156-0.249,0.229L92.462,96.859c-1.428,1.428-3.746,1.426-5.17,0.002c-1.427-1.426-1.424-3.744,0.003-5.17
	l12.959-12.959L87.263,65.74c-1.429-1.428-1.428-3.746-0.004-5.17C88.687,59.145,91.003,59.146,92.43,60.574z M80.414,43.801
	c1.152-1.996,3.71-2.678,5.703-1.527c1.997,1.152,2.685,3.701,1.53,5.703L60.108,95.674c-1.152,1.998-3.711,2.678-5.703,1.527
	c-1.998-1.152-2.686-3.701-1.53-5.703L80.414,43.801z M30.981,63.205c0.156-0.271,0.351-0.529,0.583-0.762
	c0.081-0.08,0.163-0.156,0.249-0.227l15.305-15.305c1.428-1.428,3.746-1.426,5.17-0.002c1.428,1.426,1.424,3.744-0.003,5.17
	L39.327,65.039l12.99,12.99c1.43,1.43,1.428,3.748,0.004,5.172c-1.428,1.426-3.744,1.422-5.171-0.004L32.049,68.096
	c-0.183-0.125-0.354-0.268-0.517-0.43C30.323,66.457,30.142,64.609,30.981,63.205z"/>
</svg>
