<svg xmlns="http://www.w3.org/2000/svg" width="272.629" height="288.799" viewBox="0 0 272.629 288.799"><path fill="#BE6E94" d="M264.88 190.603c-2.693 6.422-6.258 11.849-14.367 12.309 4.632-4.237 9.471-8.249 9.26-15.242 1.653.585 3.003 2.793 5.107.95v1.983z"/><path fill="#B86C91" d="M198.428 129.229c-.929 3.175-3.459 3.028-5.986 2.882-2.948-.17-4.152.532-4.3 4.139-.108 2.645-.018 6.952-4.498 7.742.974-3.454 1.715-6.999 2.974-10.345 2.186-5.798 7.384-4.222 11.81-4.418z"/><path fill="#AD6E8E" d="M166.779 138.096c-4.546.229-9.467-1.205-13.088 3.147-.323.388-.757-.71-.869-1.306 2.922-3.396 8.709-4.161 13.957-1.841z"/><path fill="#A06E89" d="M90.428 136.874c4.919-1.34 9.845-1.254 14.775-.053-4.924.466-9.849.448-14.775.053z"/><path fill="#B86C91" d="M201.094 137.941c-1.317-2.601-.435-5.355-.56-8.04 2.216.203 2.747 1.37 2.023 3.376-.551 1.533-.981 3.109-1.463 4.664z"/><path fill="#A3748B" d="M169.4 85.458c-1.107-3.246-1.078-6.494-.011-9.743.553 3.248.585 6.495.011 9.743z"/><path fill="#CC6598" d="M241.826 161.15c-10.747-2.787-21.521-2.317-31.858 1.941-3.254 1.342-4.716.916-6.364-2.285-3.802-7.388-4.623-14.921-2.51-22.865-.725-2.643 1.495-5.49-.559-8.04-.537-.744-1.284-.831-2.107-.673-1.771 1.363-3.862 1.561-5.986 1.651-3.127.131-4.946 1.135-5.214 4.869-.209 2.909-1.09 6.066-3.584 8.243-4.599 8.194-8.528 16.788-14.231 24.735-4.818-8.22-5.129-16.311-2.488-24.66.643-2.036 1.673-4.021-.145-5.97-4.883-1.135-9.577-.841-13.956 1.841-7.211 20.014-16.355 39.147-26.067 58.045-1.189-2.977-.817-5.727-.162-8.416 1.715-7.026 3.547-14.024 5.316-21.04.853-3.379.559-7.467-3.428-7.065-5.552.561-4.177-2.573-4.277-5.351-.297-8.211-5.087-11.613-12.856-8.964-6.462 2.204-11.248 6.767-15.689 11.71-1.33 1.479-2.613 2.945-4.39 3.921a2894.489 2894.489 0 0 0-20.762 11.504c-1.542.865-2.684 1.308-4.257-.277-7.578-7.635-16.753-13.363-24.802-20.428-8.375-7.349-15.386-15.498-13.556-27.999 1.233-8.425 5.454-15.208 11.245-20.97 20.302-20.201 44.923-32.674 72.707-38.639 11.605-2.492 23.6-3.065 34.952 2.197 6.33 2.931 9.647 7.735 9.097 14.904-.845 10.965-6.96 19.039-14.688 26.014-13.464 12.154-29.61 18.301-47.52 19.645-8.033.602-15.77-1.07-22.138-6.632-1.049-.917-1.927-2.909-3.524-1.589-1.328 1.096-.124 2.733.429 4.078.845 2.049 2.402 3.533 4.002 4.96 5.12 4.563 11.25 6.683 17.975 7.326 4.924-.557 9.85-.438 14.776-.053 9.227-.957 18.274-2.862 26.707-6.731 19.469-8.938 33.383-22.708 37.489-44.631-.333-3.247-.314-6.495-.012-9.743-1.649-12.25-9.886-18.697-20.512-22.723-4.789-1.812-9.894-2.793-14.855-4.152h-18.835c-6.433 1.115-13.066.884-19.349 3.039-26.755 9.181-51.836 21.129-71.741 42.064-7.744 8.143-14.014 16.934-15.976 28.257v9.914c1.327 6.83 4.737 12.532 9.41 17.588 6.53 7.064 13.774 13.277 21.795 18.589 4.542 3.008 8.872 6.319 13.353 9.415 2.742 1.894 2.771 3.204-.304 4.825-7.167 3.778-14.065 8.053-20.321 13.197-6.243 5.134-12.314 10.496-15.109 18.558-4.665 13.452.654 24.589 12.986 26.877h10.905c11.414-.907 20.106-6.625 27.011-15.401 9.033-11.482 10.891-24.564 7.789-38.423-.861-3.844-.237-6.02 3.304-7.412 1.746-.685 3.138-2.284 5.266-2.373.215 2.483-.977 4.523-.482 6.684.621 5.565.488 11.142.102 16.722.141 4.62 2.062 8.669 4.333 12.5 4.033 6.802 13.193 7.11 17.769.68 2.96-4.162 5.087-8.776 7.24-14.208-.506 3.828.058 6.882 1.176 9.794 2.28 5.929 7.247 7.273 12.181 3.351 2.887-2.295 5.03-5.227 6.785-8.437 5.301-9.701 10.643-19.377 14.975-29.581 1.63-3.835 3.246-7.724 5.454-12.608 1.084 5.323 2.244 9.347 4.329 12.878 2.21 3.738 1.546 6.461-.937 9.838-4.207 5.728-9.885 10.224-13.517 16.359-3.381 5.72-1.222 9.94 5.41 10.026 9.911.129 18.368-3.542 24.812-11.25 1.592-1.902 2.763-4.128 2.58-6.783-.634-3.162-.552-6.338-.158-9.52.234-2.775-2.213-5.586-.54-8.182 4.31-6.69 8.001-13.755 12.19-20.925 1.858 3.468 1.591 7.08 3.977 9.611 2.289 1.742 4.947 3.374 2.029 6.691-2.087 1.859-4.135 3.778-6.006 5.866-4.151 4.632-7.156 9.901-8.181 16.096-1.009 6.092 2.841 10.651 8.315 10.104 14.483-1.443 24.518-13.724 22.954-28.247-.229-2.136.104-3.479 2.336-4.107 10.175-2.856 20.264-2.41 30.168 1.032 7.833 2.726 12.693 8.547 15.486 16.214 1.874 1.34 3.665 3.615 5.892.461v-4.956c-3.363-11.922-11.209-19.434-23.054-22.505zM43.921 227.073c-3.609 1.289-7.65 2.506-10.724-.526-3.236-3.191-1.786-7.457-.582-11.116 1.674-5.092 5.04-9.274 9.069-12.701a137.128 137.128 0 0 1 17.557-12.687c4.801-2.922 5.102-2.715 5.488 3.06.076 1.148.132 2.299.17 2.954.138 13.865-8.552 26.574-20.978 31.016zm71.399-61.704c-2.959 10.811-7.061 21.225-11.656 31.442-.604 1.345-1.372 2.629-2.166 3.875-.61.96-1.277 2.223-2.557 2.064-1.513-.187-1.966-1.769-2.249-2.954-.608-2.547-.881-5.178-1.164-6.97.676-12.188 4.484-22.337 11.601-31.228.103-.129.197-.27.318-.38 2.315-2.079 5.001-5.305 7.924-3.773 3.207 1.68.66 5.329-.051 7.924zm36.678 38.143l11.785-13.505c-.414 7.372-5.355 11.065-11.785 13.505zm36.482-8.197c.489-7.413 4.519-12.515 9.437-17.494 2.999 7.797-.811 14.839-9.437 17.494z"/><path fill="#B06B8B" d="M84.689 201.426c-1.336-5.901-.77-11.802.025-17.701 1.153 5.901 1.214 11.801-.025 17.701z"/><path fill="#B27495" d="M195.3 171.71c.01-2.959-2.521-5.019-2.804-7.873 3.724 1.63 5.422 3.984 2.804 7.873z"/><path fill="#AA6A87" d="M175.419 183.696c.572 3.271.718 6.545.056 9.822-1.321-3.267-1.246-6.54-.056-9.822z"/></svg>