<svg width="334" height="191" viewBox="0 0 334 191" fill="none" xmlns="http://www.w3.org/2000/svg">
<rect width="334" height="191" fill="#101A27"/>
<path d="M82.1605 114V77.6364H96.7202C99.3954 77.6364 101.627 78.0329 103.414 78.826C105.201 79.6191 106.545 80.7199 107.445 82.1286C108.344 83.5253 108.794 85.1352 108.794 86.9581C108.794 88.3786 108.51 89.6274 107.942 90.7045C107.374 91.7699 106.592 92.6458 105.598 93.3324C104.616 94.0071 103.491 94.4865 102.224 94.7706V95.1257C103.609 95.1849 104.906 95.5755 106.113 96.2976C107.332 97.0196 108.321 98.0317 109.078 99.3338C109.836 100.624 110.214 102.163 110.214 103.95C110.214 105.88 109.735 107.602 108.776 109.117C107.829 110.621 106.427 111.81 104.568 112.686C102.71 113.562 100.419 114 97.6967 114H82.1605ZM89.8487 107.714H96.1165C98.259 107.714 99.8215 107.306 100.804 106.489C101.786 105.661 102.278 104.56 102.278 103.187C102.278 102.181 102.035 101.293 101.55 100.523C101.064 99.754 100.372 99.1503 99.4723 98.7124C98.5845 98.2744 97.5251 98.0554 96.294 98.0554H89.8487V107.714ZM89.8487 92.853H95.5483C96.6018 92.853 97.5369 92.6695 98.3537 92.3026C99.1823 91.9238 99.8333 91.3911 100.307 90.7045C100.792 90.018 101.035 89.1953 101.035 88.2365C101.035 86.9226 100.567 85.8632 99.6321 85.0582C98.7088 84.2533 97.3949 83.8509 95.6903 83.8509H89.8487V92.853ZM148.274 114V77.6364H162.833C165.509 77.6364 167.74 78.0329 169.527 78.826C171.315 79.6191 172.658 80.7199 173.558 82.1286C174.458 83.5253 174.907 85.1352 174.907 86.9581C174.907 88.3786 174.623 89.6274 174.055 90.7045C173.487 91.7699 172.706 92.6458 171.711 93.3324C170.729 94.0071 169.604 94.4865 168.338 94.7706V95.1257C169.723 95.1849 171.019 95.5755 172.226 96.2976C173.445 97.0196 174.434 98.0317 175.191 99.3338C175.949 100.624 176.328 102.163 176.328 103.95C176.328 105.88 175.848 107.602 174.89 109.117C173.943 110.621 172.54 111.81 170.681 112.686C168.823 113.562 166.533 114 163.81 114H148.274ZM155.962 107.714H162.23C164.372 107.714 165.935 107.306 166.917 106.489C167.9 105.661 168.391 104.56 168.391 103.187C168.391 102.181 168.148 101.293 167.663 100.523C167.178 99.754 166.485 99.1503 165.586 98.7124C164.698 98.2744 163.638 98.0554 162.407 98.0554H155.962V107.714ZM155.962 92.853H161.662C162.715 92.853 163.65 92.6695 164.467 92.3026C165.296 91.9238 165.947 91.3911 166.42 90.7045C166.905 90.018 167.148 89.1953 167.148 88.2365C167.148 86.9226 166.681 85.8632 165.745 85.0582C164.822 84.2533 163.508 83.8509 161.804 83.8509H155.962V92.853ZM188.752 77.6364V114H181.188V77.6364H188.752ZM207.134 114.533C204.376 114.533 201.991 113.947 199.978 112.775C197.978 111.591 196.433 109.946 195.344 107.839C194.255 105.72 193.711 103.264 193.711 100.47C193.711 97.6529 194.255 95.1908 195.344 93.0838C196.433 90.965 197.978 89.3196 199.978 88.1477C201.991 86.964 204.376 86.3722 207.134 86.3722C209.892 86.3722 212.271 86.964 214.272 88.1477C216.284 89.3196 217.835 90.965 218.924 93.0838C220.013 95.1908 220.557 97.6529 220.557 100.47C220.557 103.264 220.013 105.72 218.924 107.839C217.835 109.946 216.284 111.591 214.272 112.775C212.271 113.947 209.892 114.533 207.134 114.533ZM207.169 108.673C208.424 108.673 209.472 108.318 210.312 107.608C211.153 106.886 211.786 105.903 212.212 104.661C212.65 103.418 212.869 102.003 212.869 100.417C212.869 98.8307 212.65 97.4162 212.212 96.1733C211.786 94.9304 211.153 93.9479 210.312 93.2259C209.472 92.5038 208.424 92.1428 207.169 92.1428C205.903 92.1428 204.837 92.5038 203.973 93.2259C203.121 93.9479 202.476 94.9304 202.038 96.1733C201.612 97.4162 201.399 98.8307 201.399 100.417C201.399 102.003 201.612 103.418 202.038 104.661C202.476 105.903 203.121 106.886 203.973 107.608C204.837 108.318 205.903 108.673 207.169 108.673ZM237.762 124.795C235.312 124.795 233.211 124.458 231.459 123.783C229.719 123.121 228.334 122.215 227.304 121.067C226.275 119.919 225.606 118.628 225.298 117.196L232.294 116.255C232.507 116.799 232.844 117.308 233.306 117.782C233.767 118.255 234.377 118.634 235.135 118.918C235.904 119.214 236.839 119.362 237.94 119.362C239.585 119.362 240.941 118.96 242.006 118.155C243.083 117.362 243.622 116.03 243.622 114.16V109.17H243.302C242.971 109.928 242.474 110.644 241.811 111.319C241.148 111.994 240.296 112.544 239.254 112.97C238.212 113.396 236.969 113.609 235.525 113.609C233.477 113.609 231.613 113.136 229.932 112.189C228.263 111.23 226.931 109.768 225.937 107.803C224.955 105.826 224.463 103.329 224.463 100.31C224.463 97.2209 224.967 94.6404 225.973 92.5689C226.979 90.4974 228.316 88.9467 229.985 87.9169C231.666 86.8871 233.507 86.3722 235.507 86.3722C237.034 86.3722 238.313 86.6326 239.343 87.1534C240.373 87.6624 241.201 88.3016 241.828 89.071C242.468 89.8286 242.959 90.5743 243.302 91.3082H243.586V86.7273H251.097V114.266C251.097 116.586 250.529 118.528 249.392 120.09C248.256 121.653 246.682 122.825 244.669 123.606C242.669 124.399 240.367 124.795 237.762 124.795ZM237.922 107.928C239.141 107.928 240.171 107.626 241.012 107.022C241.864 106.406 242.515 105.531 242.965 104.394C243.426 103.246 243.657 101.873 243.657 100.275C243.657 98.6768 243.432 97.2919 242.983 96.12C242.533 94.9363 241.882 94.0189 241.029 93.3679C240.177 92.7169 239.141 92.3913 237.922 92.3913C236.679 92.3913 235.632 92.7287 234.779 93.4034C233.927 94.0663 233.282 94.9896 232.844 96.1733C232.406 97.357 232.187 98.7242 232.187 100.275C232.187 101.849 232.406 103.21 232.844 104.359C233.294 105.495 233.939 106.377 234.779 107.004C235.632 107.62 236.679 107.928 237.922 107.928Z" fill="white"/>
<path d="M115.217 114V77.6364H129.777C132.452 77.6364 134.683 78.0329 136.471 78.826C138.258 79.6191 139.602 80.7199 140.501 82.1286C141.401 83.5253 141.851 85.1352 141.851 86.9581C141.851 88.3786 141.567 89.6274 140.998 90.7045C140.43 91.7699 139.649 92.6458 138.655 93.3324C137.672 94.0071 136.548 94.4865 135.281 94.7706V95.1257C136.666 95.1849 137.962 95.5755 139.17 96.2976C140.389 97.0196 141.377 98.0317 142.135 99.3338C142.892 100.624 143.271 102.163 143.271 103.95C143.271 105.88 142.792 107.602 141.833 109.117C140.886 110.621 139.483 111.81 137.625 112.686C135.766 113.562 133.476 114 130.753 114H115.217ZM122.905 107.714H129.173C131.316 107.714 132.878 107.306 133.861 106.489C134.843 105.661 135.334 104.56 135.334 103.187C135.334 102.181 135.092 101.293 134.606 100.523C134.121 99.754 133.429 99.1503 132.529 98.7124C131.641 98.2744 130.582 98.0554 129.351 98.0554H122.905V107.714ZM122.905 92.853H128.605C129.658 92.853 130.594 92.6695 131.41 92.3026C132.239 91.9238 132.89 91.3911 133.363 90.7045C133.849 90.018 134.091 89.1953 134.091 88.2365C134.091 86.9226 133.624 85.8632 132.689 85.0582C131.765 84.2533 130.452 83.8509 128.747 83.8509H122.905V92.853Z" fill="#FF6600"/>
</svg>
