<?xml version="1.0" encoding="utf-8"?>
<!-- Generator: Adobe Illustrator 16.0.0, SVG Export Plug-In . SVG Version: 6.00 Build 0)  -->
<!DOCTYPE svg PUBLIC "-//W3C//DTD SVG 1.1//EN" "http://www.w3.org/Graphics/SVG/1.1/DTD/svg11.dtd">
<svg version="1.1" id="Layer_1" xmlns="http://www.w3.org/2000/svg" xmlns:xlink="http://www.w3.org/1999/xlink" x="0px" y="0px"
	 width="139.999px" height="140px" viewBox="0 0 139.999 140" enable-background="new 0 0 139.999 140" xml:space="preserve">
<path fill="#05060B" d="M70,0C31.34,0,0,31.34,0,70s31.34,70,70,70s69.999-31.34,69.999-70S108.66,0,70,0z M70.229,36.207
	c2.964,0,5.368,2.4,5.368,5.365s-2.404,5.367-5.368,5.367c-2.963,0-5.367-2.402-5.367-5.367S67.266,36.207,70.229,36.207z
	 M109.217,94H30.181c-0.672,0-1.215-0.328-1.215-1c0-0.666,0.541-1,1.215-1h3.742c0.258-1,0.199-2.109-0.963-3.799
	C30.972,85.31,37.442,90,39.95,92h3.562c1.031-1,1.307-2.312-1.943-5.446c2.623,0.5,5.362,2.509,7.263,4.185
	c2.819-2.115,8.139-5.932,6.312-3.274C53.591,89.723,54.007,91,54.52,92h11.724c-0.269-1-0.402-1.156-0.338-1.893l1.045-11.961
	l-8.741-6.202l-5.285,7.884c-0.651,0.934-1.53,1.521-2.667,1.521l-14.125-0.715c-4.348-0.228-4.006-6.75,0.342-6.521l12.002,0.631
	l4.493-6.707c-0.335-0.52-0.529-1.113-0.529-1.752c0-0.314,0.048-0.619,0.135-0.906l3.403-12.119l-4.281-0.016l-3.42,6.729
	c-1.971,3.881-7.791,0.924-5.819-2.957l4.282-8.439c0.615-1.205,1.51-1.826,2.737-1.867c0.034-0.002,14.95,0.059,14.95,0.059
	c1.418,0,2.395,0.568,3.195,1.406l8.764,8.955l7.166-2.338c4.138-1.35,6.163,4.857,2.024,6.207c0,0-9.193,2.982-9.281,3.008
	c-0.277,0.082-0.57,0.127-0.875,0.127c-0.773,0-1.494-0.285-2.023-0.756c-0.114-0.098-5.62-5.709-5.62-5.709l-5.931,8.848
	c3.577,2.537,10.061,7.143,10.46,7.422c0.829,0.572,1.358,1.506,1.358,2.561c0,0.117-1.254,14.179-1.254,14.179
	C72.365,91.178,72.24,92,72.053,92h3.376c0.545-1,1.741-2.156-0.228-5.021c-1.744-2.536,3.021,0.827,5.91,2.979
	c1.182-1.025,2.656-2.154,4.215-2.971c-0.385-0.495-0.884-1.045-1.516-1.654c0.947,0.18,1.909,0.557,2.842,1.045
	c0.506-0.194,1.015-0.347,1.52-0.443c-0.303,0.292-0.574,0.568-0.818,0.834c1.637,0.965,3.142,2.211,4.256,3.238
	c0.195-0.143,0.395-0.289,0.596-0.434c-0.686-1.045-1.084-2.295-1.084-3.639c0-3.666,2.972-6.639,6.638-6.639
	s6.638,2.987,6.638,6.653c0,2.678-1.586,5.05-3.869,6.05h8.689c0.67,0,1.215,0.329,1.215,1C110.432,93.667,109.889,94,109.217,94z"
	/>
<path fill="#05060B" d="M72.046,53.127c0.66-0.462,1.037-1.228,0.445-2.499C71.774,51.77,71.743,52.568,72.046,53.127z"/>
</svg>
