<?xml version="1.0" encoding="UTF-8"?>
<svg width="430px" height="213px" viewBox="0 0 430 213" version="1.1" xmlns="http://www.w3.org/2000/svg" xmlns:xlink="http://www.w3.org/1999/xlink">
    <!-- Generator: Sketch 41.2 (35397) - http://www.bohemiancoding.com/sketch -->
    <title>logoB</title>
    <desc>Created with Sketch.</desc>
    <defs>
        <ellipse id="path-1" cx="20.9055204" cy="76.8866744" rx="20" ry="19.8051038"></ellipse>
        <filter x="-50%" y="-50%" width="200%" height="200%" filterUnits="objectBoundingBox" id="filter-2">
            <feOffset dx="-3" dy="4" in="SourceAlpha" result="shadowOffsetOuter1"></feOffset>
            <feGaussianBlur stdDeviation="2" in="shadowOffsetOuter1" result="shadowBlurOuter1"></feGaussianBlur>
            <feColorMatrix values="0 0 0 0 0.22745098   0 0 0 0 0.349019608   0 0 0 0 1  0 0 0 0.561254529 0" type="matrix" in="shadowBlurOuter1"></feColorMatrix>
        </filter>
        <circle id="path-3" cx="403" cy="20" r="20"></circle>
        <filter x="-50%" y="-50%" width="200%" height="200%" filterUnits="objectBoundingBox" id="filter-4">
            <feOffset dx="-3" dy="4" in="SourceAlpha" result="shadowOffsetOuter1"></feOffset>
            <feGaussianBlur stdDeviation="2" in="shadowOffsetOuter1" result="shadowBlurOuter1"></feGaussianBlur>
            <feColorMatrix values="0 0 0 0 0.22745098   0 0 0 0 0.349019608   0 0 0 0 1  0 0 0 0.561254529 0" type="matrix" in="shadowBlurOuter1"></feColorMatrix>
        </filter>
    </defs>
    <g id="Page-1" stroke="none" stroke-width="1" fill="none" fill-rule="evenodd">
        <g id="MacBook-Pro-13&quot;-Retina" transform="translate(-142.000000, -821.000000)">
            <g id="logoB" transform="translate(148.000000, 821.000000)">
                <g id="Calque_1">
                    <g id="Group" transform="translate(131.379367, 56.663462)" fill="#000000">
                        <path d="M16.3620087,2.13910256 L16.3620087,70.613141 C16.3620087,79.2150641 18.3383188,85.6323718 22.2909389,89.8650641 C26.243559,94.0977564 32.4482533,96.2141026 40.8590611,96.2141026 C52.0045306,96.2141026 60.1625546,93.1875 65.3101528,87.1570513 C70.4577511,81.1266026 73.0315502,71.2730769 73.0315502,57.5964744 L73.0315502,2.13910256 L89.1637555,2.13910256 L89.1637555,107.683333 L75.8351528,107.683333 L73.5600983,93.5288462 L72.686845,93.5288462 C69.3776747,98.7400641 64.8045852,102.699679 58.9216157,105.475962 C53.0616266,108.229487 46.3513646,109.617628 38.8367904,109.617628 C25.8758734,109.617628 16.1551856,106.568269 9.72068777,100.469551 C3.26320961,94.3708333 0.0459606987,84.6083333 0.0459606987,71.2048077 L0.0459606987,2.13910256 L16.3620087,2.13910256 Z" id="Shape"></path>
                        <path d="M209.511845,107.683333 L209.511845,39.0272436 C209.511845,30.6073718 207.696397,24.3038462 204.065502,20.0939103 C200.434607,15.8839744 194.804421,13.7903846 187.151965,13.7903846 C177.109552,13.7903846 169.6869,16.6576923 164.884007,22.3695513 C160.081114,28.0814103 157.691157,36.888141 157.691157,48.7669872 L157.691157,107.70609 L141.558952,107.70609 L141.558952,39.0272436 C141.558952,30.6073718 139.743504,24.3038462 136.112609,20.0939103 C132.481714,15.8839744 126.805568,13.7903846 119.08417,13.7903846 C108.972817,13.7903846 101.573144,16.7942308 96.8621725,22.8019231 C92.1512009,28.8096154 89.8072052,38.6403846 89.8072052,52.3169872 L89.8072052,107.683333 L73.675,107.683333 L73.675,2.13910256 L86.7967795,2.13910256 L89.4165393,16.5894231 L90.1978712,16.5894231 C93.2542576,11.4464744 97.5286026,7.44134615 103.089847,4.55128205 C108.628111,1.66121795 114.832806,0.227564103 121.70393,0.227564103 C138.364683,0.227564103 149.257369,6.18974359 154.381987,18.136859 L155.163319,18.136859 C158.334607,12.6070513 162.953657,8.26057692 168.974509,5.02916667 C174.99536,1.79775641 181.866485,0.204807692 189.587882,0.204807692 C201.652566,0.204807692 210.683843,3.27692308 216.681714,9.39839744 C222.679585,15.5198718 225.667031,25.3278846 225.667031,38.8224359 L225.667031,107.683333 L209.511845,107.683333 L209.511845,107.683333 Z" id="Shape"></path>
                        <polygon id="Shape" points="279.188264 107.683333 263.056059 107.683333 263.056059 2.13910256 279.188264 2.13910256"></polygon>
                    </g>
                    <path d="M82.7529476,59.5535256 C67.8387009,100.970192 59.0372271,124.386538 56.3485262,132.305769 C53.6598253,140.225 50.8562227,145.595513 50.0059498,148.872436 L43.0658843,165.006731 L37.1369541,179.980449 C32.4030022,192.314423 24.8884279,198.435897 13.7889192,198.435897 C9.37669214,198.435897 5.26320961,198.026282 2.20682314,197.252564 L2.20682314,210.064423 C5.24022926,211.156731 11.4908843,211.702885 16.408679,211.702885 C25.2331332,211.702885 32.4719432,209.222436 38.5387555,204.238782 C44.6055677,199.255128 49.7991266,191.222115 54.3492358,179.343269 L100.057151,59.5535256 L82.7529476,59.5535256 L82.7529476,59.5535256 Z" id="Shape" fill="#000000"></path>
                    <g id="Oval">
                        <use fill="black" fill-opacity="1" filter="url(#filter-2)" xlink:href="#path-1"></use>
                        <use fill="#3A59FF" fill-rule="evenodd" xlink:href="#path-1"></use>
                    </g>
                    <g id="Oval-2">
                        <use fill="black" fill-opacity="1" filter="url(#filter-4)" xlink:href="#path-3"></use>
                        <use fill="#3A59FF" fill-rule="evenodd" xlink:href="#path-3"></use>
                    </g>
                    <rect id="Rectangle-path" fill="#000000" transform="translate(270.996186, 211.706147) rotate(-90.000000) translate(-270.996186, -211.706147) " x="269.847168" y="73.4837116" width="2.29803493" height="276.444872"></rect>
                </g>
            </g>
        </g>
    </g>
</svg>