<svg width="16" height="16" viewBox="0 0 16 16" fill="none" xmlns="http://www.w3.org/2000/svg">
<rect width="16" height="16" fill="#101A27"/>
<path d="M4.75852 12V3.27273H8.25284C8.89489 3.27273 9.4304 3.3679 9.85938 3.55824C10.2884 3.74858 10.6108 4.01278 10.8267 4.35085C11.0426 4.68608 11.1506 5.07244 11.1506 5.50994C11.1506 5.85085 11.0824 6.15057 10.946 6.40909C10.8097 6.66477 10.6222 6.875 10.3835 7.03977C10.1477 7.2017 9.87784 7.31676 9.57386 7.38494V7.47017C9.90625 7.48437 10.2173 7.57812 10.5071 7.75142C10.7997 7.92472 11.0369 8.16761 11.2188 8.48011C11.4006 8.78977 11.4915 9.15909 11.4915 9.58807C11.4915 10.0511 11.3764 10.4645 11.1463 10.8281C10.919 11.1889 10.5824 11.4744 10.1364 11.6847C9.69034 11.8949 9.14063 12 8.48722 12H4.75852ZM6.60369 10.4915H8.10795C8.62216 10.4915 8.99716 10.3935 9.23295 10.1974C9.46875 9.99858 9.58665 9.73437 9.58665 9.40483C9.58665 9.16335 9.52841 8.95028 9.41193 8.76562C9.29545 8.58097 9.12926 8.43608 8.91335 8.33097C8.70028 8.22585 8.44602 8.1733 8.15057 8.1733H6.60369V10.4915ZM6.60369 6.92472H7.97159C8.22443 6.92472 8.44886 6.88068 8.64489 6.79261C8.84375 6.7017 9 6.57386 9.11364 6.40909C9.23011 6.24432 9.28835 6.04688 9.28835 5.81676C9.28835 5.50142 9.17614 5.24716 8.9517 5.05398C8.73011 4.8608 8.41477 4.7642 8.00568 4.7642H6.60369V6.92472Z" fill="#FF6600"/>
</svg>
