<?xml version="1.0" encoding="utf-8"?>
<!-- Generator: Adobe Illustrator 16.0.0, SVG Export Plug-In . SVG Version: 6.00 Build 0)  -->
<!DOCTYPE svg PUBLIC "-//W3C//DTD SVG 1.1//EN" "http://www.w3.org/Graphics/SVG/1.1/DTD/svg11.dtd">
<svg version="1.1" id="Layer_1" xmlns="http://www.w3.org/2000/svg" xmlns:xlink="http://www.w3.org/1999/xlink" x="0px" y="0px"
	 width="140px" height="140px" viewBox="0 0 140 140" enable-background="new 0 0 140 140" xml:space="preserve">
<path d="M70,140c38.659,0,70-31.34,70-70S108.659,0,70,0C31.34,0,0,31.34,0,70S31.34,140,70,140z M51.558,63.32
	c0-1.169,0.321-2.312,0.532-3.42L45,57.223v11.334v3.142l-1.499-2.793L42,71.698v-3.142V56.198l-2.895-1.024L61.656,34L92.85,45.458
	l-7.123,9.333c1.355,2.543,2.117,5.446,2.117,8.529c0,6.643-3.568,12.451-8.889,15.614c11.677,4.013,20.047,14.887,20.047,27.67
	c0,0.469-0.013,1.396-0.035,1.396H39.033c-0.022,0-0.033-0.928-0.033-1.396c0-13.115,8.81-24.219,20.96-27.967
	C54.909,75.415,51.558,69.76,51.558,63.32z"/>
<circle fill-rule="evenodd" clip-rule="evenodd" cx="65.594" cy="51.39" r="2"/>
</svg>
