<?xml version="1.0" encoding="utf-8"?>
<!-- Generator: Adobe Illustrator 16.0.0, SVG Export Plug-In . SVG Version: 6.00 Build 0)  -->
<!DOCTYPE svg PUBLIC "-//W3C//DTD SVG 1.1//EN" "http://www.w3.org/Graphics/SVG/1.1/DTD/svg11.dtd">
<svg version="1.1" id="Layer_1" xmlns="http://www.w3.org/2000/svg" xmlns:xlink="http://www.w3.org/1999/xlink" x="0px" y="0px"
	 width="140px" height="140px" viewBox="0 0 140 140" enable-background="new 0 0 140 140" xml:space="preserve">
<path d="M70,140c38.659,0,70-31.34,70-70S108.659,0,70,0C31.34,0,0,31.34,0,70S31.34,140,70,140z M54.819,46.5h29.361
	C94.574,46.5,103,54.953,103,65.35c0,9.318-6.767,17.069-15.661,18.57c-0.061,1.85,0.018,4.638,0.605,7.573
	c0.825,4.129-3.18-2.993-5.393-6.993H54.819C44.426,84.5,36,75.896,36,65.5C36,55.106,44.418,46.5,54.819,46.5z"/>
</svg>
