<svg xmlns="http://www.w3.org/2000/svg" width="157.751" height="159.18" viewBox="0 0 157.751 159.18"><g fill-rule="evenodd" clip-rule="evenodd"><path d="M0 1.882C.334-.418 1.878-.135 3.384.289c5.283 1.488 10.553 3.024 15.828 4.543C64.284 17.811 109.358 30.79 154.43 43.771c.718.207 1.462.377 2.126.702 1.338.653 1.545 1.685.657 2.852-.45.591-1.044 1.073-1.585 1.593-37.462 36.047-74.926 72.093-112.391 108.139-.359.347-.707.708-1.086 1.033-2.03 1.745-3.18 1.428-3.847-1.201-1.8-7.095-3.524-14.208-5.29-21.312-4.596-18.484-9.226-36.96-13.788-55.452C12.892 54.447 6.604 28.756.296 3.07.198 2.668.096 2.267 0 1.882zm66.332 128c-11.298-3.237-22.179-6.354-33.419-9.572l8.336 33.704 25.083-24.132zM49.216 54.924L24.495 78.735l32.926 9.489-8.205-33.3zM22.021 76.163L46.72 52.364 13.804 42.93l8.217 33.233zm68.857-11.038l8.212 33.25 24.729-23.801-32.941-9.449zM62.729 89.756l32.895 9.476-8.22-33.256-24.675 23.78zM4.251 4.258l8.223 33.229L37.12 13.724 4.251 4.258zm123.637 66.406l24.656-23.711-32.818-9.445c2.749 11.167 5.378 21.852 8.162 33.156zm-14.158-34.89l-32.397-9.311 8.092 32.722 24.305-23.411zm-46.907 90.543l-8.07-32.694-24.277 23.408 32.347 9.286zm-6.097-39.59l24.291-23.408-32.336-9.287 8.045 32.695zM47.708 48.943l-8.057-32.692-24.283 23.404 32.34 9.288zm68.531-10.637c-8.237 7.94-16.104 15.523-24.287 23.413l32.342 9.274-8.055-32.687zM23.495 82.17c2.733 11.05 5.367 21.697 8.088 32.69l24.238-23.382-32.326-9.308zm27.691-34.083l24.228-23.34-32.274-9.284 8.046 32.624zm43.438 54.573l-32.258-9.282 8.059 32.574 24.199-23.292zm-8.721-42.801l-8.029-32.522-24.163 23.274 32.192 9.248z"/><path fill="#FFF" d="M66.332 129.882l-25.083 24.132-8.336-33.704c11.24 3.218 22.121 6.335 33.419 9.572zM49.216 54.924l8.205 33.3-32.926-9.489 24.721-23.811zM22.021 76.163L13.804 42.93l32.916 9.434c-8.276 7.973-16.315 15.72-24.699 23.799zm68.857-11.038l32.941 9.449L99.09 98.375l-8.212-33.25zM62.729 89.756l24.675-23.781 8.22 33.256-32.895-9.475zM4.251 4.258l32.869 9.466-24.646 23.763L4.251 4.258zm123.637 66.406l-8.162-33.156 32.818 9.445-24.656 23.711zm-14.158-34.89L89.424 59.185l-8.092-32.722 32.398 9.311zm-46.907 90.543l-32.348-9.286 24.277-23.408c2.718 11.003 5.328 21.58 8.071 32.694zm-6.097-39.59c-2.72-11.055-5.326-21.65-8.045-32.695l32.336 9.287-24.291 23.408zM47.708 48.943l-32.34-9.289L39.651 16.25l8.057 32.693zm68.531-10.637l8.055 32.687-32.342-9.274 24.287-23.413zM23.495 82.17l32.326 9.309c-8.135 7.847-16.014 15.447-24.238 23.382L23.495 82.17zm27.691-34.083l-8.047-32.624 32.274 9.284-24.227 23.34zm43.438 54.573l-24.199 23.292a331134.49 331134.49 0 0 0-8.059-32.574l32.258 9.282zm-8.721-42.801l-32.192-9.248 24.163-23.274 8.029 32.522z"/></g></svg>