<?xml version="1.0" encoding="UTF-8" standalone="no"?>
<svg width="180px" height="180px" viewBox="0 0 180 180" version="1.1" xmlns="http://www.w3.org/2000/svg" xmlns:xlink="http://www.w3.org/1999/xlink">
    <!-- Generator: Sketch 3.8.3 (29802) - http://www.bohemiancoding.com/sketch -->
    <title>Artboard</title>
    <desc>Created with Sketch.</desc>
    <defs></defs>
    <g id="Page-1" stroke="none" stroke-width="1" fill="none" fill-rule="evenodd">
        <g id="Artboard" fill="#0965DA">
            <path d="M98.9615262,67.3259774 C99.9704056,65.578547 102.209102,64.9822963 103.95385,65.9896267 C105.702155,66.999011 106.303683,69.2302048 105.292698,70.9812812 L81.186748,112.734012 C80.1778686,114.481442 77.9391717,115.077693 76.1944243,114.070362 C74.4461194,113.060978 73.8445916,110.829784 74.855576,109.078708 L98.9615262,67.3259774 L98.9615262,67.3259774 Z" id="Path"></path>
            <path d="M32.710602,93.6126713 C32.4766074,93.4520321 32.2540598,93.2678296 32.0463084,93.0600781 C30.4920014,91.5057712 30.2579064,89.1299062 31.3378749,87.3249509 C31.539224,86.9748344 31.7893453,86.6453662 32.088196,86.3465154 C32.1914125,86.2432989 32.2982519,86.1459044 32.4083065,86.05433 L52.085203,66.3774336 C53.9220637,64.5405729 56.9021207,64.5424902 58.7330084,66.373378 C60.5676293,68.2079989 60.5629071,71.1872292 58.7289529,73.0211835 L42.0677835,89.6823529 L58.7708405,106.38541 C60.6077013,108.222271 60.6057839,111.202328 58.7748961,113.033215 C56.9402752,114.867836 53.9610449,114.863114 52.1270906,113.02916 L32.710602,93.6126713 L32.710602,93.6126713 Z" id="Path"></path>
            <path d="M147.437672,85.794234 C147.671667,85.9548733 147.894214,86.1390758 148.101966,86.3468272 C149.656273,87.9011342 149.890368,90.2769992 148.810399,92.0819544 C148.60905,92.4320709 148.358929,92.7615392 148.060078,93.0603899 C147.956862,93.1636064 147.850022,93.2610009 147.739968,93.3525753 L128.063071,113.029472 C126.22621,114.866332 123.246153,114.864415 121.415266,113.033527 C119.580645,111.198906 119.585367,108.219676 121.419321,106.385722 L138.080491,89.7245524 L121.377434,73.0214953 C119.540573,71.1846346 119.54249,68.2045776 121.373378,66.3736899 C123.207999,64.539069 126.187229,64.5437912 128.021184,66.3777454 L147.437672,85.794234 L147.437672,85.794234 Z" id="Path"></path>
        </g>
    </g>
</svg>